<?xml version="1.0" standalone="no"?>
<!DOCTYPE svg PUBLIC "-//W3C//DTD SVG 20010904//EN"
 "http://www.w3.org/TR/2001/REC-SVG-20010904/DTD/svg10.dtd">
<svg version="1.0" xmlns="http://www.w3.org/2000/svg"
 width="1024.000000pt" height="1024.000000pt" viewBox="0 0 1024.000000 1024.000000"
 preserveAspectRatio="xMidYMid meet">

<g transform="translate(0.000000,1024.000000) scale(0.100000,-0.100000)"
fill="#00a3e4" stroke="none">
<path d="M4915 7834 c-305 -43 -548 -120 -769 -242 -329 -181 -603 -447 -803
-778 -140 -234 -231 -499 -269 -789 -19 -141 -14 -385 11 -530 51 -298 185
-611 363 -852 82 -110 291 -320 397 -398 152 -113 230 -199 286 -318 41 -88
49 -146 49 -341 0 -159 2 -175 24 -222 13 -28 41 -65 62 -82 77 -64 56 -62
839 -62 788 0 764 -2 843 65 75 65 85 101 92 340 8 228 12 247 75 360 43 77
103 139 246 250 230 179 344 298 479 501 161 243 276 566 309 866 39 354 -31
727 -200 1066 -303 610 -839 1014 -1513 1144 -97 18 -443 33 -521 22z m460
-469 c504 -80 991 -480 1195 -979 88 -215 127 -431 116 -638 -27 -503 -237
-879 -666 -1199 -156 -116 -233 -189 -292 -278 -101 -148 -128 -237 -137 -446
l-6 -130 -476 -3 -476 -2 -7 132 c-8 159 -25 236 -76 344 -72 150 -167 251
-370 395 -328 231 -555 586 -625 974 -99 560 126 1137 589 1506 201 161 382
249 641 310 170 40 393 45 590 14z"/>
<path d="M4337 2904 c-65 -20 -121 -78 -141 -145 -20 -65 -20 -83 -1 -145 19
-66 67 -121 129 -150 46 -21 65 -24 188 -24 l136 0 22 -64 c65 -197 232 -325
426 -326 117 0 241 43 318 110 47 42 101 125 127 196 12 33 28 65 37 72 11 8
55 12 136 12 106 0 127 3 171 24 94 44 145 122 145 218 -1 91 -47 169 -125
211 -40 22 -43 22 -780 24 -630 2 -747 0 -788 -13z"/>
</g>
</svg>
